<svg width="70" height="69" viewBox="0 0 70 69" fill="none" xmlns="http://www.w3.org/2000/svg">
<path d="M44.6079 0.373643C50.4153 -1.18246 56.3847 2.26394 57.9408 8.07141L68.6988 48.2209C70.2549 54.0284 66.8085 59.9977 61.001 61.5538L36.1466 68.2135C30.3391 69.7697 24.3698 66.3232 22.8137 60.5158L12.0556 20.3663C10.4995 14.5588 13.9459 8.58948 19.7534 7.03337L44.6079 0.373643ZM12.016 35.5283L18.9899 61.5404C19.7063 64.214 21.1086 66.5206 22.9568 68.3217L21.2037 68.2274C15.1996 67.9127 10.5874 62.7904 10.9021 56.7863L12.016 35.5283ZM46.1447 6.10929L21.2903 12.769C18.6505 13.4763 17.084 16.1897 17.7913 18.8294L28.5493 58.9789C29.2566 61.6187 31.97 63.1852 34.6097 62.4779L59.4642 55.8182C62.1039 55.1109 63.6705 52.3975 62.9632 49.7578L52.2051 9.60827C51.4978 6.96851 48.7845 5.40196 46.1447 6.10929ZM8.35588 29.6768L6.94888 56.5791C6.80392 59.345 7.42571 61.9737 8.62839 64.2587L6.98793 63.623C1.37493 61.4684 -1.42863 55.1715 0.725998 49.5585L8.35588 29.6768ZM27.6068 17.2239C29.7186 16.6581 31.8893 17.9113 32.4552 20.0231C33.021 22.1349 31.7678 24.3056 29.656 24.8715C27.5442 25.4373 25.3735 24.1841 24.8076 22.0723C24.2418 19.9605 25.495 17.7898 27.6068 17.2239Z" fill="url(#paint0_linear_12_57)"/>
<defs>
<linearGradient id="paint0_linear_12_57" x1="2.57315e-07" y1="34.2936" x2="71.274" y2="34.2936" gradientUnits="userSpaceOnUse">
<stop stop-color="#5F34FF"/>
<stop offset="1" stop-color="#C459C6"/>
</linearGradient>
</defs>
</svg>
