<svg width="125" height="108" viewBox="0 0 125 108" fill="none" xmlns="http://www.w3.org/2000/svg">
<path d="M0.953331 92.1724C9.3787 88.1563 17.6825 83.8901 25.854 79.3797C27.6987 78.3654 29.3786 80.5778 28.5545 82.0232C29.4674 82.0803 30.2725 82.6888 30.1393 83.8679L29.759 87.139C42.6952 85.005 55.3802 81.5576 67.6172 76.8504C71.3459 75.418 75.0268 73.8641 78.6539 72.191C81.8552 70.7139 85.1073 69.2432 87.998 67.2146C89.2785 66.3145 90.6034 65.2368 91.6684 63.9753C86.3815 65.2685 80.8599 65.4523 75.4842 64.2035C72.023 63.3984 68.2004 62.0418 65.8549 59.2335C63.5917 56.5139 63.3889 52.9069 64.9293 49.788C68.885 41.8005 78.5841 42.6753 85.5827 45.5026C91.0345 47.7024 97.1836 51.7024 97.7351 57.7437C102.94 55.2841 107.643 51.6834 111.333 47.4741C122.167 35.1125 125.466 17.3787 113.624 1.90424C113.624 -0.593434 115.909 0.0836984 115.909 0.0836984C128.878 13.2824 125.812 35.7211 115.181 48.9005C110.515 54.6882 104.17 59.411 97.1392 62.2193C94.8507 68.9009 87.1675 72.4953 81.253 75.2465C64.7455 82.9361 47.2427 88.2357 29.2899 91.1011C28.8271 95.0441 28.3707 98.9873 27.9079 102.924C27.8826 103.14 27.8255 103.336 27.7558 103.514C29.4103 104.661 28.3834 107.748 26.209 107C17.4481 103.964 8.99154 100.135 0.946983 95.5259C-0.238465 94.8476 -0.390603 92.8127 0.946983 92.1724L0.953331 92.1724ZM93.8365 59.3286C94.1154 56.5012 92.4291 54.0353 90.1977 52.3237C87.5162 50.2634 84.1564 48.8878 80.9297 47.9686C77.5699 47.0114 73.4557 46.5993 70.5332 48.9258C68.3525 50.6628 66.7614 53.9021 68.5934 56.4442C70.4318 58.9926 74.1657 59.9625 77.0691 60.5837C82.692 61.7882 88.4544 61.1923 93.8365 59.3349L93.8365 59.3286ZM24.1297 102.125L25.3468 91.6906C23.8381 91.8998 22.323 92.0963 20.8079 92.2738C18.3293 92.5591 18.3483 88.6794 20.8079 88.3942C22.4751 88.1977 24.1424 87.9758 25.8096 87.7412C25.9617 86.448 26.1076 85.1611 26.2597 83.8679C26.2724 83.7538 26.2977 83.6461 26.3231 83.5446C19.6835 87.1793 12.9577 90.6542 6.1515 93.9664C11.9489 97.0974 17.9559 99.8236 24.1297 102.125Z" fill="#FAFAFA"/>
</svg>
