<svg width="69" height="66" viewBox="0 0 69 66" fill="none" xmlns="http://www.w3.org/2000/svg">
<path d="M37.5222 2.82459C37.5222 1.25318 36.2483 -0.0206978 34.6769 -0.0206981C33.1055 -0.0206983 31.8316 1.25318 31.8316 2.82458L34.6769 2.82458L37.5222 2.82459ZM34.6769 39.3983L32.5166 41.25C33.0571 41.8807 33.8463 42.2436 34.6769 42.2436C35.5075 42.2436 36.2966 41.8807 36.8372 41.25L34.6769 39.3983ZM27.4122 26.5508C26.3895 25.3577 24.5933 25.2195 23.4002 26.2422C22.2071 27.2649 22.0689 29.0611 23.0916 30.2542L25.2519 28.4025L27.4122 26.5508ZM46.2622 30.2542C47.2848 29.0611 47.1467 27.2649 45.9536 26.2422C44.7605 25.2195 42.9642 25.3577 41.9416 26.5508L44.1019 28.4025L46.2622 30.2542ZM33.9321 59.968C32.3607 59.968 31.0868 61.2419 31.0868 62.8133C31.0868 64.3847 32.3607 65.6586 33.9321 65.6586V62.8133V59.968ZM62.918 60.0527L60.9062 58.0407L60.9061 58.0408L62.918 60.0527ZM62.918 24.7322L64.93 22.7203L64.9299 22.7203L62.918 24.7322ZM49.9861 19.1319C48.4147 19.1231 47.1338 20.3899 47.125 21.9613C47.1163 23.5326 48.3831 24.8136 49.9544 24.8223L49.9703 21.9771L49.9861 19.1319ZM18.5695 24.8223C20.1408 24.8136 21.4076 23.5326 21.3988 21.9613C21.3901 20.3899 20.1092 19.1231 18.5378 19.1319L18.5536 21.9771L18.5695 24.8223ZM5.6058 24.7322L3.59388 22.7202L3.59384 22.7203L5.6058 24.7322ZM5.6058 60.0527L7.61771 58.0408L7.61762 58.0407L5.6058 60.0527ZM8.35275 64.7616C9.8646 65.1901 11.4376 64.3118 11.8661 62.8C12.2946 61.2881 11.4163 59.7151 9.90448 59.2866L9.12861 62.0241L8.35275 64.7616ZM34.6769 2.82458L31.8316 2.82458L31.8316 39.3983H34.6769H37.5221L37.5222 2.82459L34.6769 2.82458ZM34.6769 39.3983L36.8372 37.5466L27.4122 26.5508L25.2519 28.4025L23.0916 30.2542L32.5166 41.25L34.6769 39.3983ZM34.6769 39.3983L36.8372 41.25L46.2622 30.2542L44.1019 28.4025L41.9416 26.5508L32.5166 37.5466L34.6769 39.3983ZM33.9321 62.8133V65.6586H46.8286V62.8133V59.968H33.9321V62.8133ZM46.8286 62.8133V65.6586C51.1911 65.6586 54.7492 65.6646 57.5495 65.2881C60.4315 64.9006 62.9329 64.0617 64.93 62.0646L62.918 60.0527L60.9061 58.0408C60.1426 58.8043 59.0422 59.3456 56.7912 59.6483C54.4583 59.962 51.352 59.968 46.8286 59.968V62.8133ZM62.918 60.0527L64.9298 62.0647C66.927 60.0678 67.766 57.5663 68.1535 54.6842C68.5299 51.884 68.5239 48.3258 68.5239 43.9633H65.6786H62.8333C62.8333 48.4867 62.8273 51.593 62.5136 53.926C62.211 56.1771 61.6696 57.2773 60.9062 58.0407L62.918 60.0527ZM65.6786 43.9633H68.5239V40.8216H65.6786H62.8333V43.9633H65.6786ZM65.6786 40.8216H68.5239C68.5239 36.4591 68.5299 32.901 68.1535 30.1008C67.766 27.2187 66.927 24.7173 64.93 22.7203L62.918 24.7322L60.9061 26.7441C61.6696 27.5076 62.211 28.608 62.5136 30.8591C62.8273 33.1919 62.8333 36.2982 62.8333 40.8216H65.6786ZM62.918 24.7322L64.9299 22.7203C63.189 20.9793 61.0591 20.1141 58.6153 19.6652C56.253 19.2313 53.38 19.1508 49.9861 19.1319L49.9703 21.9771L49.9544 24.8223C53.3937 24.8415 55.7876 24.9315 57.5873 25.2621C59.3056 25.5778 60.233 26.071 60.9061 26.7441L62.918 24.7322ZM18.5536 21.9771L18.5378 19.1319C15.1439 19.1508 12.2708 19.2313 9.90846 19.6652C7.46475 20.1141 5.3348 20.9793 3.59388 22.7202L5.6058 24.7322L7.61771 26.7441C8.29079 26.071 9.21813 25.5778 10.9365 25.2621C12.7363 24.9315 15.1301 24.8415 18.5695 24.8223L18.5536 21.9771ZM5.6058 24.7322L3.59384 22.7203C1.59685 24.7173 0.757915 27.2187 0.37043 30.1008C-0.00604987 32.901 -7.15256e-06 36.4591 -7.15256e-06 40.8216H2.84528H5.69056C5.69056 36.2982 5.6966 33.1919 6.01025 30.859C6.3129 28.608 6.85422 27.5076 7.61775 26.744L5.6058 24.7322ZM2.84528 40.8216H-7.15256e-06V43.9633H2.84528H5.69056V40.8216H2.84528ZM2.84528 43.9633H-7.15256e-06C-7.15256e-06 48.3258 -0.00604963 51.884 0.370429 54.6842C0.757908 57.5663 1.59684 60.0678 3.59397 62.0647L5.6058 60.0527L7.61762 58.0407C6.85424 57.2774 6.3129 56.1771 6.01025 53.926C5.6966 51.593 5.69056 48.4867 5.69056 43.9633H2.84528ZM5.6058 60.0527L3.59388 62.0646C4.94067 63.4114 6.53395 64.2461 8.35275 64.7616L9.12861 62.0241L9.90448 59.2866C8.83684 58.984 8.15467 58.5777 7.61771 58.0408L5.6058 60.0527Z" fill="url(#paint0_linear_12_69)"/>
<defs>
<linearGradient id="paint0_linear_12_69" x1="2.84528" y1="32.8189" x2="67.6813" y2="32.8189" gradientUnits="userSpaceOnUse">
<stop stop-color="#5F34FF"/>
<stop offset="1" stop-color="#C459C6"/>
</linearGradient>
</defs>
</svg>
