<svg width="26" height="27" viewBox="0 0 26 27" fill="none" xmlns="http://www.w3.org/2000/svg">
<path d="M24.6102 11.0956L14.1778 11.0951C13.7172 11.0951 13.3438 11.4872 13.3438 11.971V15.4711C13.3438 15.9548 13.7172 16.3471 14.1778 16.3471H20.0527C19.4094 18.1005 18.2087 19.5689 16.6768 20.5019L19.1818 25.0562C23.2002 22.6155 25.5759 18.3329 25.5759 13.5388C25.5759 12.8562 25.528 12.3683 25.4322 11.8188C25.3594 11.4013 25.0143 11.0956 24.6102 11.0956Z" fill="#167EE6"/>
<path d="M12.786 21.606C9.91099 21.606 7.4011 19.9563 6.0531 17.515L1.7168 20.1399C3.92351 24.1567 8.0574 26.8616 12.786 26.8616C15.1057 26.8616 17.2946 26.2056 19.1801 25.0625V25.0562L16.6751 20.5018C15.5293 21.1998 14.2033 21.606 12.786 21.606Z" fill="#12B347"/>
<path d="M19.1822 25.0625V25.0563L16.6771 20.5019C15.5313 21.1998 14.2054 21.6061 12.7881 21.6061V26.8616C15.1078 26.8616 17.2967 26.2056 19.1822 25.0625Z" fill="#0F993E"/>
<path d="M5.00408 13.4309C5.00408 11.9426 5.39083 10.5501 6.05526 9.34675L1.71896 6.72177C0.624524 8.69583 0 10.9884 0 13.4309C0 15.8734 0.624524 18.166 1.71896 20.1401L6.05526 17.5151C5.39083 16.3117 5.00408 14.9193 5.00408 13.4309Z" fill="#FFD500"/>
<path d="M12.786 5.25552C14.6609 5.25552 16.383 5.95518 17.7281 7.11899C18.0599 7.40607 18.5422 7.38535 18.8462 7.0661L21.2075 4.58613C21.5524 4.22392 21.5278 3.63103 21.1594 3.29536C18.9057 1.24198 15.9734 0 12.786 0C8.0574 0 3.92351 2.70488 1.7168 6.72163L6.0531 9.34661C7.4011 6.9053 9.91099 5.25552 12.786 5.25552Z" fill="#FF4B26"/>
<path d="M17.7301 7.11899C18.062 7.40607 18.5443 7.38535 18.8482 7.0661L21.2096 4.58613C21.5544 4.22392 21.5298 3.63103 21.1615 3.29536C18.9078 1.24193 15.9755 0 12.7881 0V5.25552C14.6629 5.25552 16.385 5.95518 17.7301 7.11899Z" fill="#D93F21"/>
</svg>
