<svg width="35" height="35" viewBox="0 0 35 35" fill="none" xmlns="http://www.w3.org/2000/svg">
<rect x="0.5" y="0.5" width="34" height="34" rx="17" stroke="#D6D6D6"/>
<path d="M23.5057 26.1705C24.7358 25.6952 25.7083 24.7228 26.1835 23.4927C26.4085 22.91 26.566 22.2452 26.6087 21.2728C26.6188 21.045 26.6267 20.8537 26.634 20.662V14.1647C26.629 14.0291 26.6233 13.8879 26.616 13.7293C26.5733 12.7569 26.4158 12.0887 26.1908 11.5094C25.9585 10.8946 25.6008 10.344 25.1329 9.88675C24.6751 9.42162 24.1211 9.06053 23.5131 8.83218C22.9304 8.60721 22.2656 8.44972 21.2931 8.40698C20.3133 8.3603 20.0023 8.34961 17.518 8.34961C15.0337 8.34961 14.7221 8.3603 13.7463 8.40304C12.7739 8.44579 12.1057 8.60327 11.5264 8.82825C10.9116 9.06053 10.361 9.41824 9.90317 9.88675C9.4386 10.3446 9.07751 10.8986 8.8486 11.506C8.62362 12.0887 8.46614 12.7535 8.4234 13.726C8.37671 14.7057 8.36603 15.0168 8.36603 17.5016C8.36603 19.9865 8.37671 20.2975 8.41946 21.2733C8.4622 22.2458 8.61969 22.9145 8.84522 23.4933C9.07751 24.108 9.4386 24.6586 9.90317 25.1165C10.361 25.581 10.915 25.9427 11.523 26.171C12.1057 26.396 12.7705 26.5535 13.7429 26.5962C14.7188 26.6395 15.0298 26.6502 17.5147 26.6502C19.9995 26.6502 20.31 26.6395 21.2864 26.5962C22.2588 26.5535 22.9264 26.3954 23.5057 26.1705ZM17.5214 25.0051C15.0793 25.0051 14.7863 24.9944 13.8245 24.9517C12.9308 24.9123 12.4482 24.7621 12.1265 24.6373C11.73 24.4905 11.3689 24.2582 11.0753 23.9545C10.7716 23.6575 10.5387 23.3003 10.3925 22.9033C10.2676 22.5816 10.1175 22.095 10.0781 21.2053C10.0353 20.2401 10.0247 19.9505 10.0247 17.5084C10.0247 15.0663 10.0353 14.7732 10.0781 13.812C10.1175 12.9183 10.2676 12.4357 10.3925 12.114C10.5393 11.7169 10.7716 11.3558 11.0792 11.0628C11.3756 10.7591 11.7333 10.5268 12.1299 10.38C12.4516 10.2552 12.9381 10.105 13.8279 10.0656C14.793 10.0229 15.0827 10.0122 17.5242 10.0122C19.9658 10.0122 20.2594 10.0229 21.2211 10.0656C22.1148 10.105 22.5974 10.2552 22.9191 10.38C23.3156 10.5268 23.6767 10.7591 23.9698 11.0628C24.2735 11.3598 24.5063 11.7169 24.6526 12.114C24.7774 12.4357 24.9276 12.9217 24.967 13.812C25.0097 14.7772 25.0204 15.0668 25.0204 17.5084C25.0204 19.9499 25.0097 20.2362 24.967 21.2013C24.9276 22.095 24.7774 22.5776 24.6526 22.8993C24.3449 23.6969 23.7122 24.3296 22.9152 24.6367C22.5935 24.7616 22.1075 24.9117 21.2172 24.9511C20.252 24.9939 19.9629 25.0051 17.5214 25.0051Z" fill="#D6D6D6"/>
<path d="M17.5182 12.7997C14.9226 12.7997 12.8168 14.9054 12.8168 17.5011C12.8168 20.0967 14.9226 22.2025 17.5182 22.2025C20.1139 22.2025 22.2191 20.0967 22.2191 17.5011C22.2191 14.9054 20.1133 12.7997 17.5182 12.7997ZM17.5182 20.5501C15.8343 20.5501 14.4687 19.1845 14.4687 17.5005C14.4687 15.8166 15.8343 14.451 17.5182 14.451C19.2022 14.451 20.5678 15.8166 20.5678 17.5005C20.5678 19.1845 19.2022 20.5501 17.5182 20.5501Z" fill="#D6D6D6"/>
<path d="M23.5014 12.6138C23.5014 12.0075 23.0098 11.5165 22.4035 11.5165C21.7972 11.5165 21.3062 12.008 21.3062 12.6138C21.3062 13.2195 21.7977 13.7111 22.4035 13.7111C23.0092 13.7111 23.5014 13.2201 23.5014 12.6138Z" fill="#D6D6D6"/>
</svg>
