<svg width="35" height="35" viewBox="0 0 35 35" fill="none" xmlns="http://www.w3.org/2000/svg">
<rect x="0.5" y="0.5" width="34" height="34" rx="17" stroke="#D6D6D6"/>
<path d="M13.4322 24.6278V15.0093H10.238V24.6278H13.4322ZM11.8357 13.6962C12.9494 13.6962 13.6427 12.9576 13.6427 12.0346C13.6219 11.0905 12.9494 10.3726 11.8569 10.3726C10.7637 10.3726 10.0497 11.0905 10.0497 12.0345C10.0497 12.9576 10.7428 13.6961 11.8148 13.6961L11.8357 13.6962ZM15.2002 24.6278H18.3942V19.257C18.3942 18.9699 18.4151 18.682 18.4994 18.477C18.7302 17.9024 19.2558 17.3076 20.1384 17.3076C21.2939 17.3076 21.7565 18.1895 21.7565 19.4827V24.6278H24.9504V19.1128C24.9504 16.1585 23.3748 14.7838 21.2733 14.7838C19.5503 14.7838 18.7936 15.7476 18.3732 16.4041H18.3945V15.0096H15.2004C15.2421 15.9119 15.2002 24.6278 15.2002 24.6278Z" fill="#D6D6D6"/>
</svg>
