<svg width="22" height="22" viewBox="0 0 22 22" fill="none" xmlns="http://www.w3.org/2000/svg">
<path d="M10.083 1.83333C6.36586 1.84002 4.41938 1.93129 3.17544 3.17523C1.83301 4.51765 1.83301 6.67826 1.83301 10.9994C1.83301 15.3207 1.83301 17.4813 3.17544 18.8237C4.51786 20.1661 6.67847 20.1661 10.9997 20.1661C15.3208 20.1661 17.4815 20.1661 18.8239 18.8237C20.0679 17.5797 20.1591 15.6333 20.1658 11.9161" stroke="#FEFEFE" stroke-width="1.5" stroke-linecap="round"/>
<path d="M11.9157 10.0833L20.1657 1.83333M20.1657 1.83333H15.2672M20.1657 1.83333V6.73177M19.249 2.75L10.999 11M10.999 11H14.6657M10.999 11V7.33333" stroke="#FEFEFE" stroke-width="1.5" stroke-linecap="round" stroke-linejoin="round"/>
</svg>
