<svg width="69" height="69" viewBox="0 0 69 69" fill="none" xmlns="http://www.w3.org/2000/svg">
<path d="M31.4371 39.2099C31.4371 40.7729 32.7042 42.0401 34.2673 42.0401C35.8303 42.0401 37.0975 40.7729 37.0975 39.2099H34.2673H31.4371ZM34.2673 2.8302L36.4161 0.98834C35.8784 0.361041 35.0935 1.50204e-05 34.2673 1.50204e-05C33.4411 1.50204e-05 32.6561 0.361041 32.1184 0.98834L34.2673 2.8302ZM41.4934 15.6095C42.5107 16.7963 44.2973 16.9338 45.4841 15.9165C46.6709 14.8993 46.8083 13.1126 45.7911 11.9258L43.6423 13.7677L41.4934 15.6095ZM22.7435 11.9258C21.7262 13.1126 21.8637 14.8993 23.0504 15.9165C24.2372 16.9338 26.0239 16.7963 27.0411 15.6095L24.8923 13.7677L22.7435 11.9258ZM18.0098 64.837L18.0585 62.0072L18.0341 62.0068H18.0098V64.837ZM46.7083 65.3308L46.6596 68.1605L46.684 68.1609H46.7083V65.3308ZM62.7123 62.5848L60.7112 60.5835L60.7111 60.5836L62.7123 62.5848ZM62.7123 27.4517L64.7136 25.4505L64.7136 25.4505L62.7123 27.4517ZM49.8491 21.8811C48.286 21.8724 47.0119 23.1325 47.0032 24.6955C46.9945 26.2586 48.2545 27.5327 49.8175 27.5414L49.8333 24.7113L49.8491 21.8811ZM18.5991 27.5414C20.1621 27.5327 21.4222 26.2586 21.4135 24.6955C21.4048 23.1325 20.1306 21.8724 18.5676 21.8811L18.5833 24.7113L18.5991 27.5414ZM5.70424 27.4517L3.703 25.4505L3.70296 25.4505L5.70424 27.4517ZM5.70424 62.5848L7.70548 60.5836L5.70424 62.5848ZM34.2673 39.2099H37.0975V2.8302H34.2673H31.4371V39.2099H34.2673ZM34.2673 2.8302L32.1184 4.67206L41.4934 15.6095L43.6423 13.7677L45.7911 11.9258L36.4161 0.98834L34.2673 2.8302ZM34.2673 2.8302L32.1184 0.98834L22.7435 11.9258L24.8923 13.7677L27.0411 15.6095L36.4161 4.67206L34.2673 2.8302ZM18.0098 64.837L17.9611 67.6668L46.6596 68.1605L46.7083 65.3308L46.757 62.501L18.0585 62.0072L18.0098 64.837ZM46.7083 65.3308V68.1609C51.0477 68.1609 54.5869 68.167 57.3723 67.7925C60.239 67.407 62.7271 66.5725 64.7136 64.5861L62.7123 62.5848L60.7111 60.5836C59.9516 61.3431 58.8571 61.8815 56.618 62.1826C54.2975 62.4946 51.2077 62.5006 46.7083 62.5006V65.3308ZM62.7123 62.5848L64.7135 64.5862C66.7001 62.5998 67.5346 60.1116 67.92 57.2448C68.2945 54.4595 68.2885 50.9201 68.2885 46.5808H65.4583H62.6281C62.6281 51.0802 62.6221 54.1701 62.3101 56.4906C62.009 58.7298 61.4706 59.8242 60.7112 60.5835L62.7123 62.5848ZM65.4583 46.5808H68.2885V43.4558H65.4583H62.6281V46.5808H65.4583ZM65.4583 43.4558H68.2885C68.2885 39.1164 68.2945 35.5772 67.92 32.7918C67.5345 29.9251 66.7 27.4369 64.7136 25.4505L62.7123 27.4517L60.7111 29.453C61.4706 30.2125 62.009 31.307 62.3101 33.5461C62.6221 35.8666 62.6281 38.9564 62.6281 43.4558H65.4583ZM62.7123 27.4517L64.7136 25.4505C62.9819 23.7188 60.8632 22.8581 58.4325 22.4116C56.0827 21.98 53.2249 21.8999 49.8491 21.8811L49.8333 24.7113L49.8175 27.5414C53.2386 27.5605 55.6197 27.65 57.4099 27.9789C59.1191 28.2928 60.0416 28.7835 60.7111 29.453L62.7123 27.4517ZM18.5833 24.7113L18.5676 21.8811C15.1917 21.8999 12.3339 21.98 9.98407 22.4116C7.55333 22.8581 5.43468 23.7188 3.703 25.4505L5.70424 27.4517L7.70548 29.453C8.37499 28.7834 9.29741 28.2928 11.0067 27.9789C12.7969 27.65 15.178 27.5605 18.5991 27.5414L18.5833 24.7113ZM5.70424 27.4517L3.70296 25.4505C1.71657 27.437 0.882085 29.9251 0.496656 32.7918C0.122174 35.5772 0.128185 39.1164 0.128185 43.4558H2.95837H5.78855C5.78855 38.9564 5.79457 35.8666 6.10655 33.5461C6.40759 31.307 6.94604 30.2124 7.70552 29.4529L5.70424 27.4517ZM2.95837 43.4558H0.128185V46.5808H2.95837H5.78855V43.4558H2.95837ZM2.95837 46.5808H0.128185C0.128185 48.747 0.0654266 50.5592 0.0271189 52.2139C-0.0102797 53.8293 -0.0263183 55.3437 0.096499 56.7312C0.361576 59.7259 1.28464 62.1677 3.703 64.5861L5.70424 62.5848L7.70548 60.5836C6.34879 59.2269 5.89892 58.086 5.73482 56.2321C5.64306 55.1954 5.64837 53.9691 5.68597 52.3449C5.72267 50.76 5.78855 48.8339 5.78855 46.5808H2.95837ZM5.70424 62.5848L3.703 64.5861C4.74704 65.6301 6.13502 66.2232 7.34053 66.5927C8.59997 66.9789 9.98257 67.2155 11.2908 67.3669C13.9075 67.6697 16.5743 67.6672 18.0098 67.6672V64.837V62.0068C16.5508 62.0068 14.1909 62.0043 11.9414 61.744C10.8167 61.6139 9.80635 61.4283 8.99962 61.181C8.13897 60.9171 7.78752 60.6656 7.70548 60.5836L5.70424 62.5848Z" fill="url(#paint0_linear_12_67)"/>
<defs>
<linearGradient id="paint0_linear_12_67" x1="2.83023" y1="34.0805" x2="67.4544" y2="34.0805" gradientUnits="userSpaceOnUse">
<stop stop-color="#5F34FF"/>
<stop offset="1" stop-color="#C459C6"/>
</linearGradient>
</defs>
</svg>
